<svg xmlns="http://www.w3.org/2000/svg" viewBox="0 0 64 64">
  <rect width="64" height="64" rx="13" fill="#001524"/>

  <circle cx="29" cy="34" r="21" fill="#ffe477" stroke="#061b28" stroke-width="2.5"/>
  <path
    d="M45 34.5 60 40l-14.5 8c-2-4.4-2.2-9.2-.5-13.5Z"
    fill="#ff9a4a"
    stroke="#061b28"
    stroke-width="2.5"
    stroke-linejoin="round"
  />

  <path
    d="M8.5 33.5C8.5 14.5 17.5 5 31 5c15 0 24.5 11 24.5 31l-7 7H15l-6.5-9.5Z"
    fill="#c8d4dc"
    stroke="#061b28"
    stroke-width="2.5"
    stroke-linejoin="round"
  />
  <path
    d="M13 28C15 16.5 21 11 31 11c11.5 0 18.5 7 20 19.5L47 34H16Z"
    fill="#061b28"
  />
  <path
    d="M13 29h38v12c-10 4.5-25 4.5-38 0Z"
    fill="#082332"
    stroke="#061b28"
    stroke-width="2"
    stroke-linejoin="round"
  />
  <path d="M17 33h30" stroke="#00a7e1" stroke-width="5.5" stroke-linecap="round"/>
  <path
    d="M21 33v4m7-4v4m7-4v4m7-4v4"
    stroke="#d8f8ff"
    stroke-width="1.8"
    stroke-linecap="round"
  />
  <path
    d="M15 43h33l-4.5 10h-24Z"
    fill="#9babb5"
    stroke="#061b28"
    stroke-width="2.5"
    stroke-linejoin="round"
  />
  <path d="M23 48h17" stroke="#00a7e1" stroke-width="2" stroke-dasharray="3 3"/>
</svg>
